<svg xmlns="http://www.w3.org/2000/svg" xmlns:xlink="http://www.w3.org/1999/xlink">
  <style type="text/css">
    #shopguide .a{fill:#fff;}
    #icon_rect .st0{fill-rule:evenodd;clip-rule:evenodd;fill:none;stroke:#FFFFFF;stroke-width:2;stroke-miterlimit:10;}
    #only_popup .st0{fill:#12B4B2;}
    #only_popup .st1{fill:#4DC3C6;}
    #icon_fb .st0{fill:#FFFFFF;}
    #icon_ig .st0{fill:#FFFFFF;}
    #icon_tw .st0{fill:#FFFFFF;}
    #icon_vk .st0{fill-rule:evenodd;clip-rule:evenodd;fill:#FFFFFF;}
    #icon_ok .st0{fill:#FFFFFF;}
    #download_ios .st0{fill:#FFFFFF;}
    #download_android .st0{fill:url(#SVGID_1_);}
    #download_android .st1{fill:url(#SVGID_2_);}
    #download_android .st2{fill:url(#SVGID_3_);}
    #download_android .st3{fill:url(#SVGID_4_);}
    #download_android .st4{fill:#FFFFFF;}
    #like .st0{fill:#B6D5DC;}
    #geo .st0{fill:#B6D5DC;}
    #bell .st0{fill:#B6D5DC;}
    #sheet .st0{fill:#B6D5DC;}
    #arrow_down .st0{fill:#FFFFFF;}
    #arrow_left .st0{fill-rule:evenodd;clip-rule:evenodd;fill:#FFFFFF;}
    #arrow_right .st0{fill-rule:evenodd;clip-rule:evenodd;fill:#FFFFFF;}
    #contact .st0{fill:#FFFFFF;}
  </style>
    <symbol id="shopguide" viewBox="0 0 400.05 51.38">
      <defs></defs><title>shopguide</title><path class="a" d="M0,45.08a22.11,22.11,0,0,0,15.47,6.3c9.52,0,15.05-6,15.05-13.51C30.52,22.05,6,25.2,6,13.37c0-5.18,4.69-8.26,10.29-8.26a16.61,16.61,0,0,1,10.85,4.2l2.38-4.06a19.53,19.53,0,0,0-13-4.76C7.84,0.49,1,5.6,1,13.65,1,28.91,25.55,26,25.55,38.36c0,5.11-4.13,8.4-9.94,8.4A19,19,0,0,1,2.87,41.37Z"/><path class="a" d="M41.16,50.54H46V28.07H74.48V50.54h4.9V1.33h-4.9v22.4H46V1.33H41.16V50.54Z"/><path class="a" d="M90.16,25.55c0,14.49,10.71,25.83,25.06,25.83S140.28,40,140.28,25.55c0-14.07-10.64-25.06-25.06-25.06A24.6,24.6,0,0,0,90.16,25.55Zm5,0c0-11.62,8.54-20.51,20-20.51s20,8.89,20,20.51c0,12-8.47,21.28-20,21.28S95.2,37.59,95.2,25.55Z"/><path class="a" d="M151.2,50.54H156V31.22h12.18c8.75,0,15.19-5.88,15.19-15.05S177,1.33,168.21,1.33h-17V50.54ZM156,26.88V5.67h11.62c6.51,0,10.78,3.85,10.78,10.5s-4.27,10.71-10.85,10.71H156Z"/><path class="a" d="M189.07,25.62c0,15.61,11.27,25.76,24.36,25.76,5.67,0,11.2-2.17,14.42-5.32H228s-0.07,1-.07,2.1v2.38h7.7V24.36H219.87v7.77h7.63v5.81A18.39,18.39,0,0,1,215,43.12c-9.31,0-16.66-7.07-16.66-17.78,0-9.24,6-17.08,17.08-17.08A21.73,21.73,0,0,1,228.69,13l4.48-6.72c-5.11-4.41-12-6.3-18.48-6.3C199.92,0,189.07,11.2,189.07,25.62Z"/><path class="a" d="M245,32.69c0,11.13,8.05,18.69,20.09,18.69s20-7.56,20-18.69V0.84h-9V32.62c0,6.72-4.34,10.5-11,10.5s-11-3.78-11-10.5V0.84h-9V32.69Z"/><path class="a" d="M296.52,50.54h9V0.84h-9v49.7Z"/><path class="a" d="M317.59,50.54h16.94c15.33,0,25.34-9.24,25.34-24.92S349.86,0.84,334.53.84H317.59v49.7Zm9-7.77V8.61H334c9.94,0,16.52,6,16.52,17S344.12,42.77,334,42.77h-7.42Z"/><path class="a" d="M369.18,50.54H400V42.77H378.21V29.4h16.73V21.63H378.21v-13h20.72V0.84H369.18v49.7Z"/>
    </symbol>
    <symbol id="only_popup" x="0px" y="0px" viewBox="0 0 161 36" style="enable-background:new 0 0 161 36;" xml:space="preserve">
      <path class="st0" d="M10,25L0,24v12L10,25z"/>
      <path class="st1" d="M0,0h161v26H0V0z"/>
    </symbol>
    <symbol id="icon_rect" x="0px" y="0px" viewBox="0 0 42 42" style="enable-background:new 0 0 42 42;" xml:space="preserve">
      <path class="st0" d="M23.8,2.6l15.6,15.6c1.6,1.6,1.6,4.1,0,5.7L23.8,39.4c-1.6,1.6-4.1,1.6-5.7,0L2.6,23.8c-1.6-1.6-1.6-4.1,0-5.7
        L18.2,2.6C19.7,1.1,22.3,1.1,23.8,2.6z"/>
    </symbol>
    <symbol id="icon_fb" x="0px" y="0px" viewBox="0 0 42 42" style="enable-background:new 0 0 42 42;" xml:space="preserve">
      <path class="st0" d="M23,16h2v-3h-2.4l0,0c-2.9,0.1-3.5,1.8-3.6,3.5l0,0V18h-2v3h2v8h3v-8h2.5l0.5-3h-3v-0.9C22,16.5,22.4,16,23,16z
        "/>
    </symbol>
    <symbol id="icon_ig" x="0px" y="0px" viewBox="0 0 42 42" style="enable-background:new 0 0 42 42;" xml:space="preserve">
      <g>
        <path class="st0" d="M24.1,18.9h4.4v6.7c0,1.6-1.3,3-3,3h-9.1c-1.6,0-3-1.3-3-3v-6.7h4.4c-0.4,0.6-0.7,1.4-0.7,2.2
          c0,2.1,1.7,3.8,3.8,3.8c2.1,0,3.8-1.7,3.8-3.8C24.8,20.3,24.6,19.5,24.1,18.9z M28.5,16.5v1.9h-4.8c-0.7-0.7-1.7-1.1-2.7-1.1
          c-1.1,0-2,0.4-2.7,1.1h-4.8v-1.9c0-1,0-1.7,0.7-2.2v3H15v-3.8c0.1-0.1,0.6,0,0.8,0v3.8l0.6,0v-3.7c0,0,0,0,0.1,0h0.8v3.8H18v-3.8
          h7.5C27.2,13.5,28.5,14.8,28.5,16.5z M27.1,15.2c0-0.3-0.2-0.5-0.5-0.5h-1.6c-0.3,0-0.5,0.2-0.5,0.5v1.6c0,0.3,0.2,0.5,0.5,0.5h1.6
          c0.3,0,0.5-0.2,0.5-0.5V15.2L27.1,15.2z M18,21.1c0-0.9,0.4-1.7,1-2.2c0.2-0.2,0.5-0.3,0.7-0.5c0.4-0.2,0.8-0.3,1.2-0.3
          c0.4,0,0.8,0.1,1.2,0.3c0.3,0.1,0.5,0.3,0.7,0.5c0.6,0.5,1,1.3,1,2.2c0,1.6-1.3,2.9-3,2.9S18,22.7,18,21.1z M18.8,21.1
          c0,1.2,1,2.2,2.2,2.2s2.2-1,2.2-2.2c0-1.2-1-2.2-2.2-2.2S18.8,19.9,18.8,21.1z"/>
      </g>
    </symbol>
    <symbol id="icon_tw" x="0px" y="0px" viewBox="0 0 42 42" style="enable-background:new 0 0 42 42;" xml:space="preserve">
      <path class="st0" d="M29,16.1c-0.3,0.1-1.1,0.4-1.8,0.5c0.5-0.3,1.2-1.1,1.4-1.8c-0.5,0.3-1.5,0.7-2.1,0.7c0,0,0,0,0,0
        c-0.6-0.6-1.4-1-2.4-1c-1.8,0-3.3,1.5-3.3,3.3c0,0.3,0,0.5,0.1,0.7h0c-2.5-0.1-5.4-1.3-7-3.4c-1,1.7-0.1,3.7,1,4.4
        c-0.4,0-1.1,0-1.4-0.4c0,1.1,0.5,2.7,2.5,3.2c-0.4,0.2-1.1,0.2-1.4,0.1c0.1,1,1.5,2.2,3,2.2C17,25.3,15.2,26.4,13,26
        c1.5,0.9,3.3,1.5,5.2,1.5c5.3,0,9.5-4.3,9.2-9.6c0,0,0,0,0,0c0,0,0,0,0,0c0,0,0,0,0,0C27.9,17.4,28.5,16.8,29,16.1z"/>
    </symbol>
    <symbol id="icon_vk" x="0px" y="0px" viewBox="0 0 42 42" style="enable-background:new 0 0 42 42;" xml:space="preserve">
      <path class="st0" d="M20.8,26.5h1.1c0,0,0.3,0,0.5-0.2c0.2-0.2,0.2-0.5,0.2-0.5s0-1.6,0.7-1.8c0.7-0.2,1.6,1.5,2.5,2.2
        c0.7,0.5,1.3,0.4,1.3,0.4l2.5,0c0,0,1.3-0.1,0.7-1.2c-0.1-0.1-0.4-0.8-1.9-2.2c-1.6-1.5-1.4-1.3,0.5-3.9c1.2-1.6,1.6-2.5,1.5-3
        c-0.1-0.4-1-0.3-1-0.3l-2.9,0c0,0-0.2,0-0.4,0.1c-0.2,0.1-0.3,0.3-0.3,0.3s-0.5,1.2-1.1,2.3c-1.3,2.2-1.8,2.3-2,2.2
        c-0.5-0.3-0.4-1.3-0.4-2c0-2.1,0.3-3-0.6-3.2c-0.3-0.1-0.5-0.1-1.3-0.1c-1,0-1.9,0-2.4,0.2c-0.3,0.2-0.6,0.5-0.4,0.5
        c0.2,0,0.6,0.1,0.8,0.4C19,17.1,19,18,19,18s0.2,2.5-0.4,2.8c-0.4,0.2-0.9-0.2-2-2.2c-0.6-1-1-2.2-1-2.2s-0.1-0.2-0.2-0.3
        C15.1,16,14.8,16,14.8,16l-2.7,0c0,0-0.4,0-0.6,0.2c-0.1,0.2,0,0.5,0,0.5s2.1,5.1,4.5,7.6C18.3,26.6,20.8,26.5,20.8,26.5z"/>
    </symbol>
    <symbol id="icon_ok" x="0px" y="0px" viewBox="0 0 42 42" style="enable-background:new 0 0 42 42;" xml:space="preserve">
      <g>
        <path class="st0" d="M21,21.3c2.2,0,4-1.7,4-3.9c0-2.1-1.8-3.9-4-3.9s-4,1.7-4,3.9S18.8,21.3,21,21.3z M21,15.9
          c0.9,0,1.7,0.7,1.7,1.6c0,0.9-0.7,1.6-1.7,1.6c-0.9,0-1.7-0.7-1.7-1.6C19.3,16.5,20.1,15.9,21,15.9z"/>
        <path class="st0" d="M22.6,24.4c0.9-0.2,1.6-0.5,2.4-0.9c0.6-0.3,0.7-1,0.4-1.6c-0.4-0.5-1.1-0.7-1.7-0.4c-1.6,1-3.7,1-5.4,0
          c-0.5-0.3-1.3-0.1-1.6,0.4c-0.4,0.5-0.2,1.2,0.4,1.6c0.7,0.4,1.5,0.8,2.3,0.9l-2.2,2.2c-0.5,0.4-0.5,1.2,0,1.6
          c0.2,0.2,0.5,0.3,0.8,0.3c0.3,0,0.6-0.1,0.8-0.3l2.2-2.1l2.2,2.1c0.5,0.4,1.2,0.4,1.7,0s0.5-1.2,0-1.6L22.6,24.4z"/>
      </g>
    </symbol>
    <symbol id="download_ios" x="0" y="0" viewBox="0 0 190 50" style="enable-background:new 0 0 186 53;" xml:space="preserve">
      <path class="st0" d="M37.9,16.2c3.6,0,5.8,3.5,5.8,3.5s-3.5,1.9-3.5,6c0,4.9,4.4,6.3,4.4,6.3s-3.5,8.2-7.3,8.2
        c-2.1,0-2.3-1.3-5.2-1.3c-2.5,0-3.4,1.3-5.2,1.3c-3.7,0-8.3-8-8.3-14.5c0-6.8,4.7-9.5,7.7-9.5c2.6,0,3.7,1.5,5.8,1.5
        C33.9,17.7,35.3,16.2,37.9,16.2z M37.3,9.3c0.5,3.3-2.4,7.5-6,7.3C30.7,12.4,34.6,9.5,37.3,9.3z"/>
      <path class="st0" d="M62.4,12c0.7-0.1,1.5-0.2,2.5-0.2c1.7,0,2.9,0.4,3.8,1.2c0.8,0.8,1.3,1.8,1.3,3.3c0,1.5-0.5,2.7-1.4,3.6
        c-0.9,0.9-2.3,1.4-4.1,1.4c-0.9,0-1.5,0-2.1-0.1V12z M63.7,20.2c0.3,0.1,0.8,0.1,1.2,0.1c2.5,0,4-1.5,4-3.9c0-2.1-1.3-3.6-3.8-3.6
        c-0.6,0-1.1,0.1-1.4,0.1C63.7,12.9,63.7,20.2,63.7,20.2z"/>
      <path class="st0" d="M77.3,17.8c0,2.4-1.7,3.5-3.3,3.5c-1.7,0-3.2-1.4-3.2-3.4c0-2.2,1.5-3.5,3.3-3.5C76.1,14.4,77.3,15.8,77.3,17.8
        z M72.1,17.8c0,1.5,0.9,2.5,2,2.5c1.2,0,2-1.1,2-2.6c0-1.2-0.6-2.5-1.9-2.5C72.7,15.3,72.1,16.6,72.1,17.8z"/>
      <path class="st0" d="M79.2,14.6l0.9,3.4c0.2,0.8,0.4,1.5,0.5,2.1l0,0c0.2-0.7,0.4-1.4,0.6-2.1l1.1-3.4h1l1.1,3.3
        c0.3,0.8,0.5,1.5,0.6,2.1l0,0c0.1-0.7,0.3-1.4,0.5-2.1l1-3.3h1.2l-2.1,6.6h-1.1l-1-3.2c-0.2-0.8-0.4-1.4-0.6-2.1l0,0
        c-0.2,0.8-0.4,1.5-0.6,2.2l-1.1,3.1H80l-2-6.6C78,14.6,79.2,14.6,79.2,14.6z"/>
      <path class="st0" d="M88.3,16.3c0-0.7,0-1.3-0.1-1.7h1.1l0.1,1.1l0,0c0.3-0.6,1.1-1.3,2.2-1.3c0.9,0,2.3,0.6,2.3,2.8v4h-1.2v-3.8
        c0-1.1-0.4-1.9-1.5-1.9c-0.8,0-1.5,0.6-1.6,1.3c-0.1,0.2-0.1,0.4-0.1,0.6v4h-1.2L88.3,16.3L88.3,16.3z"/>
      <path class="st0" d="M95.3,11.5h1.2v9.7h-1.2V11.5z"/>
      <path class="st0" d="M104.6,17.8c0,2.4-1.7,3.5-3.3,3.5c-1.7,0-3.2-1.4-3.2-3.4c0-2.2,1.5-3.5,3.3-3.5
        C103.2,14.4,104.6,15.8,104.6,17.8z M99.3,17.8c0,1.5,0.9,2.5,2,2.5c1.2,0,2-1.1,2-2.6c0-1.2-0.6-2.5-1.9-2.5
        C100,15.3,99.3,16.6,99.3,17.8z"/>
      <path class="st0" d="M110.4,21.1l-0.1-0.9l0,0c-0.4,0.5-1.1,1-2,1c-1.4,0-2-1-2-1.9c0-1.6,1.5-2.5,4-2.4v-0.1c0-0.6-0.2-1.5-1.5-1.5
        c-0.6,0-1.3,0.2-1.7,0.5l-0.3-0.8c0.6-0.4,1.4-0.6,2.1-0.6c2,0,2.5,1.4,2.5,2.7v2.5c0,0.6,0,1.2,0.1,1.5H110.4z M110.2,17.8
        c-1.4,0-2.8,0.2-2.8,1.5c0,0.8,0.5,1.2,1.2,1.2c0.9,0,1.5-0.6,1.6-1.1c0-0.1,0.1-0.3,0.1-0.4L110.2,17.8L110.2,17.8z"/>
      <path class="st0" d="M119.6,11.5v8c0,0.6,0,1.3,0.1,1.7h-1.1l-0.1-1.2l0,0c-0.4,0.8-1.2,1.3-2.2,1.3c-1.6,0-2.8-1.4-2.8-3.4
        c0-2.2,1.4-3.6,3-3.6c1,0,1.7,0.5,2,1l0,0v-4L119.6,11.5C119.6,11.4,119.6,11.5,119.6,11.5z M118.3,17.3c0-0.2,0-0.4-0.1-0.5
        c-0.2-0.8-0.9-1.4-1.7-1.4c-1.3,0-1.9,1.1-1.9,2.5c0,1.4,0.7,2.4,1.9,2.4c0.8,0,1.5-0.5,1.7-1.5c0-0.2,0.1-0.3,0.1-0.5V17.3z"/>
      <path class="st0" d="M130.4,17.8c0,2.4-1.7,3.5-3.3,3.5c-1.7,0-3.2-1.4-3.2-3.4c0-2.2,1.5-3.5,3.3-3.5
        C129.2,14.4,130.4,15.8,130.4,17.8z M125.2,17.8c0,1.5,0.9,2.5,2,2.5c1.2,0,2-1.1,2-2.6c0-1.2-0.6-2.5-1.9-2.5
        C125.8,15.3,125.2,16.6,125.2,17.8z"/>
      <path class="st0" d="M132,16.3c0-0.7,0-1.3-0.1-1.7h1.1l0.1,1.1l0,0c0.3-0.6,1.1-1.3,2.2-1.3c0.9,0,2.3,0.6,2.3,2.8v4h-1.2v-3.8
        c0-1.1-0.4-1.9-1.5-1.9c-0.8,0-1.5,0.6-1.6,1.3c-0.1,0.2-0.1,0.4-0.1,0.6v4H132V16.3z"/>
      <path class="st0" d="M144.5,12.6v1.9h1.7v0.9h-1.7V19c0,0.8,0.2,1.3,0.9,1.3c0.3,0,0.6,0,0.7-0.1l0.1,0.9c-0.2,0.1-0.6,0.2-1.1,0.2
        c-0.6,0-1-0.2-1.3-0.5c-0.4-0.4-0.5-1-0.5-1.7v-3.6h-1.1v-0.9h1.1V13L144.5,12.6z"/>
      <path class="st0" d="M147.2,11.5h1.2v4.2l0,0c0.2-0.4,0.5-0.7,0.9-0.9c0.4-0.2,0.8-0.4,1.3-0.4c0.9,0,2.3,0.6,2.3,2.8v4h-1.2v-3.8
        c0-1.1-0.4-1.9-1.5-1.9c-0.8,0-1.4,0.6-1.6,1.2c-0.1,0.2-0.1,0.4-0.1,0.6v4h-1.2V11.5z"/>
      <path class="st0" d="M156.4,18c0,1.6,1.1,2.3,2.2,2.3c0.9,0,1.4-0.2,1.8-0.4l0.2,0.9c-0.4,0.2-1.2,0.4-2.2,0.4c-2,0-3.3-1.4-3.3-3.3
        c0-2,1.2-3.6,3.1-3.6c2.1,0,2.7,1.9,2.7,3.1c0,0.3,0,0.5,0,0.6H156.4z M159.9,17.2c0-0.8-0.3-1.9-1.6-1.9c-1.3,0-1.7,1.2-1.8,1.9
        H159.9z"/>
      <path class="st0" d="M65.5,36.8l-1.5,4.7H61L66.3,25h3.9l5.4,16.5h-3.3l-1.5-4.7L65.5,36.8L65.5,36.8z M70.3,34.5L69,30.4
        c-0.3-1-0.6-2.1-0.9-3.1H68c-0.3,1-0.5,2.1-0.8,3.1L66,34.5H70.3z"/>
      <path class="st0" d="M77.5,33.5c0-1.5-0.1-2.8-0.1-4H80l0.2,1.8h0.1c0.9-1.4,2.3-2.1,4.1-2.1c2.7,0,5,2.3,5,6.1
        c0,4.4-2.7,6.4-5.4,6.4c-1.5,0-2.7-0.7-3.4-1.6h-0.1v6.2h-3V33.5z M80.5,36.5c0,0.3,0,0.6,0.1,0.9c0.3,1.3,1.4,2.1,2.6,2.1
        c1.9,0,3.1-1.6,3.1-4c0-2.1-1.1-3.9-3-3.9c-1.3,0-2.4,0.9-2.7,2.2c-0.1,0.3-0.1,0.5-0.1,0.8C80.5,34.7,80.5,36.5,80.5,36.5z"/>
      <path class="st0" d="M92.4,33.5c0-1.5-0.1-2.8-0.1-4h2.6l0.2,1.8h0.1c0.9-1.4,2.3-2.1,4.1-2.1c2.7,0,5,2.3,5,6.1
        c0,4.4-2.7,6.4-5.4,6.4c-1.5,0-2.7-0.7-3.4-1.6h-0.1v6.2h-3C92.4,46.3,92.4,33.5,92.4,33.5z M95.5,36.5c0,0.3,0,0.6,0.1,0.9
        c0.3,1.3,1.4,2.1,2.6,2.1c1.9,0,3.1-1.6,3.1-4c0-2.1-1.1-3.9-3-3.9c-1.3,0-2.4,0.9-2.7,2.2c-0.1,0.3-0.1,0.5-0.1,0.8
        C95.5,34.7,95.5,36.5,95.5,36.5z"/>
      <path class="st0" d="M112,38.2c1,0.6,2.4,1.1,4,1.1c1.9,0,3-0.9,3-2.2c0-1.3-0.9-2-2.9-2.7c-2.7-1-4.5-2.4-4.5-4.8
        c0-2.7,2.2-4.7,5.8-4.7c1.8,0,3.1,0.4,4,0.9l-0.8,2.4c-0.6-0.3-1.7-0.8-3.3-0.8c-1.9,0-2.7,1.1-2.7,2c0,1.3,1,1.8,3.2,2.7
        c2.9,1.1,4.3,2.5,4.3,4.9c0,2.6-2,4.9-6.3,4.9c-1.7,0-3.6-0.5-4.5-1.1L112,38.2z"/>
      <path class="st0" d="M128.3,26.1v3.4h2.9v2.2h-2.9V37c0,1.5,0.4,2.2,1.5,2.2c0.5,0,0.9-0.1,1.2-0.2l0.1,2.3
        c-0.5,0.2-1.3,0.3-2.2,0.3c-1.1,0-2-0.4-2.6-1c-0.7-0.7-1-1.7-1-3.4v-5.6h-1.7v-2.2h1.7v-2.7L128.3,26.1z"/>
      <path class="st0" d="M144.4,35.4c0,4.4-3.1,6.4-6.2,6.4c-3.4,0-6-2.3-6-6.2c0-4,2.6-6.4,6.2-6.4C142.1,29.3,144.4,31.8,144.4,35.4z
         M135.4,35.6c0,2.3,1.2,4.1,3,4.1c1.7,0,2.9-1.7,2.9-4.1c0-1.8-0.9-4-2.9-4C136.2,31.5,135.4,33.5,135.4,35.6z"/>
      <path class="st0" d="M146.9,33.4c0-1.6,0-2.8-0.1-3.9h2.6l0.1,2.3h0.1c0.6-1.7,2-2.5,3.3-2.5c0.3,0,0.5,0,0.7,0.1v2.8
        c-0.3-0.1-0.5-0.1-0.9-0.1c-1.5,0-2.4,1-2.7,2.3c-0.1,0.3-0.1,0.6-0.1,1v6.2h-3L146.9,33.4L146.9,33.4z"/>
      <path class="st0" d="M157.7,36.3c0.1,2.1,1.7,3.1,3.7,3.1c1.4,0,2.4-0.2,3.3-0.6l0.5,2.1c-1.1,0.4-2.4,0.8-4.2,0.8
        c-3.9,0-6.2-2.4-6.2-6.1c0-3.3,2-6.5,5.8-6.5c3.9,0,5.1,3.2,5.1,5.8c0,0.6-0.1,1-0.1,1.3L157.7,36.3L157.7,36.3z M163.1,34.3
        c0-1.1-0.5-2.9-2.5-2.9c-1.8,0-2.6,1.7-2.8,2.9H163.1z"/>
    </symbol>
    <symbol id="download_android" viewBox="0 0 190 50" x="0px" y="0px" style="enable-background:new 0 0 186 51;" xml:space="preserve">
      <linearGradient id="SVGID_1_" gradientUnits="userSpaceOnUse" x1="42.3305" y1="24.8715" x2="38.2098" y2="32.9589" gradientTransform="matrix(1 0 0 -1 0 53.2)">
        <stop  offset="0" style="stop-color:#FCD08F"/>
        <stop  offset="1" style="stop-color:#F79774"/>
      </linearGradient>
      <path class="st0" d="M39,30c3.9-2.1,6.8-3.7,7.1-3.9c0.8-0.4,1.6-1.6,0-2.4c-0.5-0.3-3.4-1.9-7.1-3.9L34,24.9L39,30z"/>
      <linearGradient id="SVGID_2_" gradientUnits="userSpaceOnUse" x1="36.3364" y1="26.1108" x2="20.6465" y2="9.2854" gradientTransform="matrix(1 0 0 -1 0 53.2)">
        <stop  offset="0" style="stop-color:#E74148"/>
        <stop  offset="1" style="stop-color:#8051A1"/>
      </linearGradient>
      <path class="st1" d="M33.9,24.9L17.7,41.2c0.4,0,0.8-0.1,1.3-0.3c1-0.6,12.3-6.7,20-10.9L33.9,24.9z"/>
      <linearGradient id="SVGID_3_" gradientUnits="userSpaceOnUse" x1="36.426" y1="30.6388" x2="20.4872" y2="47.144" gradientTransform="matrix(1 0 0 -1 0 53.2)">
        <stop  offset="0" style="stop-color:#E5ECAA"/>
        <stop  offset="1" style="stop-color:#4ABEBC"/>
      </linearGradient>
      <path class="st2" d="M33.9,24.9l5.1-5.1c0,0-18.8-10.3-20-10.9c-0.4-0.2-0.9-0.3-1.3-0.2L33.9,24.9z"/>
      <linearGradient id="SVGID_4_" gradientUnits="userSpaceOnUse" x1="25.25" y1="11.9555" x2="25.25" y2="44.5213" gradientTransform="matrix(1 0 0 -1 0 53.2)">
        <stop  offset="0" style="stop-color:#92D4CF"/>
        <stop  offset="1" style="stop-color:#1A7492"/>
      </linearGradient>
      <path class="st3" d="M33.9,24.9L17.7,8.7c-0.7,0.1-1.2,0.7-1.2,1.9c0,1.9,0,27.1,0,28.7c0,1.1,0.4,1.9,1.2,1.9L33.9,24.9z"/>
      <g>
        <path class="st4" d="M68,17.5c-0.5,0.2-1.6,0.5-2.9,0.5c-1.4,0-2.6-0.4-3.5-1.3c-0.8-0.8-1.3-2.1-1.3-3.5c0-2.8,2-4.9,5.1-4.9
          c1.1,0,2,0.2,2.4,0.4l-0.3,1c-0.5-0.2-1.1-0.4-2.1-0.4c-2.3,0-3.8,1.4-3.8,3.8s1.5,3.8,3.7,3.8c0.8,0,1.4-0.1,1.6-0.3v-2.8H65v-1
          h3.1L68,17.5L68,17.5z"/>
        <path class="st4" d="M71,14.8c0,1.7,1.1,2.4,2.3,2.4c0.9,0,1.4-0.2,1.9-0.4l0.2,0.9c-0.4,0.2-1.2,0.4-2.3,0.4
          c-2.1,0-3.4-1.4-3.4-3.4c0-2.1,1.2-3.7,3.2-3.7c2.2,0,2.8,2,2.8,3.2c0,0.3,0,0.5,0,0.6H71z M74.7,13.9c0-0.8-0.3-2-1.7-2
          c-1.3,0-1.8,1.2-1.9,2H74.7z"/>
        <path class="st4" d="M78.7,9.2v2h1.8v0.9h-1.8v3.7c0,0.8,0.2,1.3,0.9,1.3c0.3,0,0.6,0,0.7-0.1l0.1,0.9c-0.2,0.1-0.6,0.2-1.1,0.2
          c-0.6,0-1-0.2-1.3-0.5c-0.4-0.4-0.5-1-0.5-1.8v-3.7h-1.1v-0.9h1.1V9.6L78.7,9.2z"/>
        <path class="st4" d="M85.7,9.2c0,0.4-0.3,0.8-0.8,0.8c-0.4,0-0.7-0.3-0.7-0.8c0-0.4,0.3-0.8,0.8-0.8C85.3,8.4,85.7,8.8,85.7,9.2z
           M84.3,17.9v-6.8h1.2v6.8H84.3z"/>
        <path class="st4" d="M89.8,9.2v2h1.8v0.9h-1.8v3.7c0,0.8,0.2,1.3,0.9,1.3c0.3,0,0.6,0,0.7-0.1l0.1,0.9c-0.2,0.1-0.6,0.2-1.1,0.2
          c-0.6,0-1-0.2-1.3-0.5c-0.4-0.4-0.5-1-0.5-1.8v-3.7h-1.1v-0.9h1.1V9.6L89.8,9.2z"/>
        <path class="st4" d="M102.3,14.5c0,2.5-1.7,3.6-3.4,3.6c-1.8,0-3.3-1.4-3.3-3.5c0-2.3,1.5-3.6,3.4-3.6S102.3,12.4,102.3,14.5z
           M96.8,14.6c0,1.5,0.9,2.6,2.1,2.6s2.1-1.1,2.1-2.6c0-1.2-0.6-2.6-2-2.6S96.8,13.3,96.8,14.6z"/>
        <path class="st4" d="M103.8,13c0-0.7,0-1.3-0.1-1.8h1.1l0.1,1.1l0,0c0.3-0.6,1.1-1.3,2.3-1.3c0.9,0,2.4,0.6,2.4,2.9V18h-1.2v-3.9
          c0-1.1-0.4-2-1.6-2c-0.8,0-1.5,0.6-1.7,1.3c-0.1,0.2-0.1,0.4-0.1,0.6v4.1h-1.2V13z"/>
      </g>
      <g>
        <path class="st4" d="M148.4,40.6H147V24.9h1.4V40.6z"/>
        <path class="st4" d="M159.9,39.2v-7.1c0,0-0.4-2.9-4.8-2.9c-4.4,0-4.5,3.2-4.5,3.2h1.4c0,0-0.1-2.2,3.1-2.2c3.1,0,3.3,1.9,3.3,1.9
          v1.4h-2.9c-3.7,0-5.4,2-5.4,4c0,1.9,1.1,3.3,3.8,3.3c2.7,0,4.5-1.6,4.5-1.6c0,0.8,0,1.4,0,1.4h1.4
          C159.9,40.6,159.9,40.1,159.9,39.2z M158.5,36.3c0,2.2-3,3.4-4.4,3.4s-2.5-0.6-2.5-2.1s1.8-2.7,4-2.7h2.9V36.3z"/>
        <path class="st4" d="M161.3,29.2h1.4l3.7,9.7l3.5-9.7h1.4c0,0-3.8,13.1-4.3,14.3c-0.5,1.2-2.5,1.7-4,1.7c-0.7,0-1.3-0.4-1.3-0.4
          l0.4-1c0,0,0.3,0.2,1,0.2c0.6,0,1.8-1.5,1.8-1.5l0.8-1.9L161.3,29.2z"/>
        <path class="st4" d="M140.3,29.1c-2.4,0-3.3,1.4-3.4,1.5v-1.4l0,0h-1.4v15.7h1.4l0,0v-5.7c0,0.1,0.6,1.6,3.4,1.6s5-1.8,5-5.9
          C145.3,30.7,142.6,29.1,140.3,29.1z M140,39.7c-2.3,0-3.1-3.4-3.2-3.4v-2.9c0-0.1,1.1-3.3,3.3-3.3c2.1,0,3.8,2.1,3.8,4.8
          C144,37.6,142.4,39.7,140,39.7z"/>
        <path class="st4" d="M74.8,26.2c0,0-1.9-1.9-6.5-1.9c-5.7,0-9,4.3-9,8.4c0,3.6,2.5,8.1,8.7,8.1c3.2,0,6.8-1.2,6.8-1.2s0-1.4,0-2.8
          s1.7-2,1.7-2h-5.7L69,35.9c0.9-0.2,3.4-0.2,3.4-0.2v3.4c0,0-1.1,0.6-2.8,0.6c-4.8,0-8-4.2-8-8c0-4.7,3.4-6.7,6.3-6.7
          s4.6,2.2,4.6,2.2L72,28.1l0.9-0.2L74.8,26.2z"/>
        <path class="st4" d="M82.8,29.2c-3.3,0-6.1,2.4-6.1,5.9c0,2.5,2,5.5,5.7,5.5c3.6,0,6.2-2.4,6.2-5.8C88.5,31.5,86.2,29.2,82.8,29.2z
           M83,39.9c-2.8,0-4.1-4.2-4.1-6.3S80.4,30,82,30c2.4,0,4.1,2.8,4.1,6.1C86.2,37.1,85.8,39.9,83,39.9z"/>
        <path class="st4" d="M95.8,29.2c-3.3,0-6,2.4-6,5.9c0,2.5,2,5.5,5.7,5.5c3.6,0,6.2-2.4,6.2-5.8C101.5,31.5,99,29.2,95.8,29.2z
           M95.9,39.9c-2.7,0-4-4.2-4-6.3S93.4,30,95,30c2.4,0,4,2.8,4,6.1C99.2,37.1,98.8,39.9,95.9,39.9z"/>
        <path class="st4" d="M111.2,39.8c-1.2-0.8-1.4-1.2-1.4-1.6c0-0.4,0-0.6,0.9-1.4c0.8-0.8,1.6-1.6,1.6-3.1c0-2.2-1.5-3.2-1.5-3.2h1.4
          l1.4-0.8c0,0-2.7,0-5.6,0s-5.1,2.2-5.1,4.6c0,1.7,1.4,3.7,4.3,3.7c0.3,0,0.5-0.1,0.5-0.1s-0.2,0.4-0.2,0.9c0,0.8,0.7,1.5,0.7,1.5
          s-6.5,0-6.5,4.2c0,2.5,2.9,3.4,5.2,3.4c2.3,0,6.4-1.2,6.4-4.4C113.2,41.8,112.3,40.6,111.2,39.8z M108,37.1c-1.7,0-3.1-2.5-3.1-4.1
          c0-1.5,0.8-2.6,2.1-2.6c1.4,0,3,1.5,3,4.4C110,35.8,109.8,37.1,108,37.1z M107.8,46.7c-0.8,0-4.2-0.3-4.2-2.9
          c0-2.6,3.9-2.9,4.3-2.9c0.5,0,0.8,0.1,0.8,0.1c1.2,1,2.5,1.6,2.5,3.2C111.4,46.5,108.7,46.7,107.8,46.7z"/>
        <path class="st4" d="M113.9,24.9l1-1.4h3.3c-0.8,0.4-1.4,0.8-1.4,2.9c0,2,0,11.4,0,11.4c0,0.8,1,1.9,1.6,1.9s0.8,0.1,0.8,0.1
          l-1,0.8h-4.3c0,0,1.4-0.9,1.4-1.4V24.9H113.9z"/>
        <path class="st4" d="M129,32.1c0,0-0.6-3-4.2-3c-3.6,0-5.5,2.8-5.5,5.6c0,2.8,1.7,5.9,5.8,5.9c2.9,0,4.2-2.1,4.2-2.1
          s-1.4,0.8-2.9,0.8c-2.3,0-5-2.4-5-5.9c0-2.4,1.7-3.3,2.7-3.3c2.1,0,2.5,1.9,2.3,2.2c-0.2,0.3-5,2.3-5,2.3l1.9-0.1L129,32.1z"/>
      </g>
    </symbol>
    <symbol id="like" x="0px" y="0px" viewBox="0 0 100 100" style="enable-background:new 0 0 100 100;" xml:space="preserve">
      <path class="st0" d="M76.1,81.7H45.5c-2.8,0-8.4-3.7-8.4-6.6V47.8c0-0.6,0.3-1.2,0.9-1.5c6.1-3.4,9.2-9.5,12.4-18.9v-9
        c0-0.3,0.1-0.6,0.2-0.9c1-1.7,2.8-2.7,4.8-2.7c2.6,0,5.4,1.6,7.4,4.2c2,2.7,4.9,8.6,2.5,19h14c3.1,0,10.2,3.2,10.2,8.5
        c0,1.7-0.2,4.4-1.3,6c0.9,2.4,1,6.4-1.6,9.2c0.2,4.7-1,8.1-3.5,10c0,2.5-1.2,5.5-2.9,7.5C79,80.9,77.6,81.7,76.1,81.7z M40.5,49
        v25.8c0.3,0.9,3.6,3.2,5,3.2h30.1c0.4,0,1-0.4,1.6-1c1.3-1.5,2.2-4.2,2-5.9c-0.1-0.7,0.2-1.3,0.8-1.7c2.7-1.4,2.7-5.7,2.5-8.1
        c0-0.5,0.2-1,0.6-1.4c2.4-2,1.6-5.6,1-6.7c-0.3-0.4-0.3-1-0.2-1.5c0.2-0.5,0.6-0.9,1.1-1c-0.1-0.1,0.4-1.4,0.4-3.8
        c0-2.7-4.9-5.1-6.7-5.1H62.9c-0.5,0-1-0.2-1.3-0.6c-0.3-0.4-0.4-0.9-0.3-1.4c2.1-7.4,1.6-14-1.4-17.9c-1.6-2.1-3.4-2.9-4.7-2.9
        c-0.7,0-1.3,0.2-1.7,0.7v8.6c0,0.2,0,0.4-0.1,0.5C50.2,38.3,46.9,45,40.5,49z"/>
      <path class="st0" d="M34.6,85H16.3c-3.2,0-5.8-2.6-5.8-5.9v-35c0-3.2,2.6-5.9,5.8-5.9h18.3c3.2,0,5.8,2.6,5.8,5.9v35
        C40.4,82.4,37.8,85,34.6,85z M16.9,42c-1.3,0-2.4,1.1-2.4,2.4v34.1c0,1.4,1.1,2.5,2.4,2.5h17.2c1.3,0,2.4-1.1,2.4-2.5V44.5
        c0-1.3-1.1-2.4-2.4-2.4H16.9z"/>
    </symbol>
    <symbol id="geo" x="0px" y="0px" viewBox="0 0 100 100" style="enable-background:new 0 0 100 100;" xml:space="preserve">
      <path class="st0" d="M50,75.7c-0.4,0-0.8-0.1-1.2-0.4C35.9,64.7,30,54.9,27.3,48.4c-0.7-1.6-1.3-3.3-1.7-5c-0.1-0.5-0.2-0.7-0.2-0.8
        C25.2,41,25,39.4,25,37.8c0-14,11.2-25.3,25-25.3s25,11.4,25,25.3c0,1.6-0.1,3.2-0.4,4.8c0,0.1-0.1,0.4-0.2,0.8
        c-0.4,1.7-0.9,3.4-1.7,5c-2.7,6.4-8.6,16.3-21.6,26.8C50.8,75.5,50.4,75.7,50,75.7z M29.1,42c0,0.1,0,0.3,0.1,0.6c0,0,0,0,0,0
        c0.3,1.5,0.8,2.9,1.4,4.3c0,0,0,0,0,0.1c2.4,5.8,7.7,14.7,19.3,24.4C61.6,61.7,66.9,52.8,69.3,47c0,0,0,0,0-0.1
        c0.6-1.4,1.1-2.8,1.4-4.3c0,0,0,0,0,0c0.1-0.3,0.1-0.5,0.1-0.6c0,0,0-0.1,0-0.1c0.3-1.3,0.4-2.7,0.4-4.1c0-11.9-9.6-21.6-21.3-21.6
        c-11.7,0-21.3,9.7-21.3,21.6C28.7,39.2,28.8,40.6,29.1,42C29.1,42,29.1,42,29.1,42z M50.3,52.9c-8.4,0-15.2-6.9-15.2-15.4
        C35.1,29,41.9,22,50.3,22c3.1,0,6,0.9,8.5,2.6c0.8,0.6,1.1,1.7,0.5,2.6c-0.6,0.9-1.7,1.1-2.6,0.5c-1.9-1.3-4.1-2-6.4-2
        c-6.4,0-11.5,5.2-11.5,11.7c0,6.4,5.2,11.7,11.5,11.7s11.5-5.2,11.5-11.7c0-1.6-0.3-3.1-0.9-4.6c-0.4-1,0-2.1,1-2.5
        c0.9-0.4,2,0,2.4,1c0.8,1.9,1.2,4,1.2,6.1C65.5,46,58.7,52.9,50.3,52.9z M72.4,78.3c0-2.1-1.3-5-7.8-7.1c-1-0.3-2,0.2-2.3,1.2
        c-0.3,1,0.2,2,1.2,2.4c3.6,1.2,5.2,2.7,5.2,3.6c0,1.9-6.6,5.5-18.6,5.5s-18.6-3.6-18.6-5.5c0-0.9,1.6-2.3,5-3.5
        c1-0.3,1.5-1.4,1.2-2.4c-0.3-1-1.4-1.5-2.3-1.2c-6.2,2.1-7.5,5-7.5,7.1c0,6.1,11.2,9.2,22.3,9.2C61.1,87.5,72.4,84.3,72.4,78.3z"/>
    </symbol>
    <symbol id="bell" x="0px" y="0px"
    viewBox="0 0 100 100" style="enable-background:new 0 0 100 100;" xml:space="preserve">
      <g>
        <path class="st0" d="M50,73.9c-20.4,0-26.4-4.2-27-4.8l0.2-3.8c0.1-0.1,5.5-4.8,5.5-11.8c0-9.1,2.1-16.4,6.2-21.5
          c3.8-4.7,9.2-7.3,15.2-7.3c6,0,10.5,2.6,14.2,7.3c4.1,5.1,7.2,12.3,7.2,21.5c0,7,5.4,11.8,5.5,11.8l0.2,2.8
          C76.4,68.6,70.4,73.9,50,73.9z M27,66.7c0.7,0.3,1.6,0.6,2.7,0.9c3.6,1.1,10.1,2.4,20.8,2.4c13.1,0,19.1-2,22.5-3.4
          c-2.3-2.9-5.4-6-5.4-12.6c0-8.6-1.9-14.6-5.6-19.1c-3.1-3.9-6.5-6-11.5-6s-10.4,2.1-13.5,6c-3.7,4.6-4.6,10.5-4.6,19.1
          C32.3,60.6,29.3,63.7,27,66.7z"/>
        <path class="st0" d="M50,85c-6.3,0-11.4-6.1-11.4-11.5l3.7-0.4c0,3.9,3.5,8,7.7,8s7.7-4,7.7-8l3.7,0.4C61.4,78.9,56.3,85,50,85z"/>
        <path class="st0" d="M56.3,21.1c-2.5-2.5-10.6-2.5-13,0l-1.6-2.7c4.5-4.5,11.8-4.5,16.3,0L56.3,21.1z"/>
      </g>
    </symbol>
    <symbol id="sheet" x="0px" y="0px" viewBox="0 0 100 100" style="enable-background:new 0 0 100 100;" xml:space="preserve">
      <g>
        <path class="st0" d="M76.1,83H23.9c-3.8,0-6.9-3.2-6.9-7.1V53.6c0-1.9,0.7-3.6,1.9-4.9c1.3-1.4,3.1-2.2,5-2.2h52.2
          c3.8,0,6.9,3.2,6.9,7.1v22.2C83,79.8,80,83,76.1,83z M23.9,50.1c-0.8,0-1.6,0.4-2.3,1.1c-0.7,0.6-1,1.5-1,2.5v22.2
          c0,1.9,1.5,3.6,3.2,3.6H76c1.8,0,3.2-1.6,3.2-3.6V53.6c0-1.9-1.5-3.6-3.2-3.6H23.9z"/>
        <path class="st0" d="M80.2,49.4h-3.7V23.2c0-1.5-1.2-2.6-2.8-2.6H26.5c-0.7,0-1.5,0.3-2,0.8c-0.5,0.5-0.7,1.1-0.7,1.8v26.2H20V23.2
          c0-1.6,0.7-3.2,1.8-4.4c1.2-1.2,2.9-1.9,4.6-1.9h47.3c3.5,0,6.4,2.8,6.4,6.2V49.4z"/>
        <path class="st0" d="M71,49.6c-1,0-1.8-0.8-1.8-1.8v-4.7H30.4v4.7c0,1-0.8,1.8-1.8,1.8s-1.8-0.8-1.8-1.8v-6.6c0-1,0.8-1.8,1.8-1.8
          h42.4c1,0,1.8,0.8,1.8,1.8v6.6C72.9,48.8,72,49.6,71,49.6z"/>
        <path class="st0" d="M67.8,42c-1,0-1.8-0.8-1.8-1.8v-3.7H34.1v3.7c0,1-0.8,1.8-1.8,1.8c-1,0-1.8-0.8-1.8-1.8v-5.5
          c0-1,0.8-1.8,1.8-1.8h35.5c1,0,1.8,0.8,1.8,1.8v5.5C69.6,41.2,68.7,42,67.8,42z"/>
        <path class="st0" d="M64.5,35.1c-1,0-1.8-0.8-1.8-1.8v-3.5h-25v3.5c0,1-0.8,1.8-1.8,1.8c-1,0-1.8-0.8-1.8-1.8V28
          c0-1,0.8-1.8,1.8-1.8h28.8c1,0,1.8,0.8,1.8,1.8v5.3C66.4,34.3,65.6,35.1,64.5,35.1z"/>
        <path class="st0" d="M59.7,69.8h-19c-1,0-1.8-0.8-1.8-1.8v-4.6c0-1,0.8-1.8,1.8-1.8c1,0,1.8,0.8,1.8,1.8v2.8h15.3v-2.8
          c0-1,0.8-1.8,1.8-1.8c1,0,1.8,0.8,1.8,1.8V68C61.6,69,60.8,69.8,59.7,69.8z"/>
      </g>
    </symbol>
    <symbol id="arrow_down" x="0px" y="0px" viewBox="0 0 37 17.1" style="enable-background:new 0 0 37 17.1;" xml:space="preserve">
      <path class="st0" d="M32.7,0.1L37,0.5L18.5,17.1L0,0.4L4.3,0l14.2,12.6L32.7,0.1z"/>
    </symbol>
    <symbol id="arrow_left" x="0px" y="0px" viewBox="0 0 12 21" style="enable-background:new 0 0 12 21;" xml:space="preserve">
      <path class="st0" d="M3.1,10.5l8.9,8.1L11.7,21L0,10.5L11.7,0L12,2.4L3.1,10.5z"/>
    </symbol>
    <symbol id="arrow_right"  x="0px" y="0px" viewBox="0 0 12 21" style="enable-background:new 0 0 12 21;" xml:space="preserve">
      <path class="st0" d="M0,2.4L0.3,0L12,10.5L0.3,21L0,18.6l8.9-8.1L0,2.4z"/>
    </symbol>
    <symbol id="contact" x="0px" y="0px" viewBox="0 0 18 18" style="enable-background:new 0 0 18 18;" xml:space="preserve">
      <path class="st0" d="M17.6,15.9c-0.3-0.4-0.5-0.7-0.7-1.2c-0.4-1.4,0.1-3.1,0.1-3.1l0,0c0.3-0.9,0.4-1.8,0.4-2.8
        C17.4,4,13.5,0,8.7,0C3.9,0,0,4,0,8.8c0,3.8,2.3,7,5.6,8.3l0,0c0,0,0,0,0.1,0c0.4,0.2,0.9,0.3,1.3,0.4c1.8,0.4,5.2,0.9,10,0.1
        C18.2,17.4,18.2,16.6,17.6,15.9z M10.3,10.8H7c-0.3,0-0.6-0.3-0.6-0.6c0-0.3,0.3-0.6,0.6-0.6h3.2c0.3,0,0.6,0.3,0.6,0.6
        C10.9,10.6,10.6,10.8,10.3,10.8z M11.7,8.5H7c-0.3,0-0.6-0.3-0.6-0.6c0-0.3,0.3-0.6,0.6-0.6h4.6c0.3,0,0.6,0.3,0.6,0.6
        C12.2,8.3,12,8.5,11.7,8.5z"/>
    </symbol>
</svg>
